<?xml version="1.0"?>
<svg xmlns="http://www.w3.org/2000/svg" xmlns:xlink="http://www.w3.org/1999/xlink" xmlns:svgjs="http://svgjs.com/svgjs" version="1.1" width="512" height="512" x="0" y="0" viewBox="0 0 512.178 512.178" style="enable-background:new 0 0 512 512" xml:space="preserve" class=""><g>
<path xmlns="http://www.w3.org/2000/svg" style="" d="M396.784,446.596L266.011,115.929c-1.446-3.641-4.771-6.196-8.661-6.656L54.683,85.422  c-5.752-0.808-11.07,3.2-11.878,8.952c-0.018,0.13-0.034,0.261-0.048,0.392L0.091,436.1c-0.763,5.841,3.353,11.196,9.194,11.959  c0.085,0.011,0.171,0.021,0.256,0.03l373.333,42.667h1.216c5.521,0.024,10.148-4.168,10.667-9.664l2.773-29.589  C397.672,449.831,397.416,448.15,396.784,446.596z" fill="#22c1c3" data-original="#ffa000" class=""/>
<path xmlns="http://www.w3.org/2000/svg" style="" d="M469.424,94.766c-0.684-5.851-5.983-10.04-11.834-9.355c-0.031,0.004-0.061,0.007-0.092,0.011  l-91.733,10.795L94.832,128.089c-5.801,0.659-9.994,5.86-9.408,11.669l32,341.333c0.519,5.496,5.146,9.688,10.667,9.664h1.216  l373.333-42.667c5.853-0.671,10.053-5.96,9.382-11.813c-0.005-0.045-0.01-0.089-0.016-0.134L469.424,94.766z" fill="#fdbb2d" data-original="#ffe082" class=""/>
<path xmlns="http://www.w3.org/2000/svg" style="" d="M309.424,170.756c-5.891,0.011-10.675-4.757-10.686-10.648c-0.005-2.84,1.123-5.565,3.134-7.571  l53.333-53.333c4.093-4.237,10.845-4.355,15.083-0.262c4.237,4.093,4.354,10.845,0.262,15.083c-0.086,0.089-0.173,0.176-0.262,0.262  l-53.333,53.333C314.96,169.621,312.251,170.749,309.424,170.756z" fill="#455a64" data-original="#455a64" class=""/>
<circle xmlns="http://www.w3.org/2000/svg" style="" cx="394.758" cy="74.756" r="53.333" fill="#f44336" data-original="#f44336" class=""/>
<path xmlns="http://www.w3.org/2000/svg" d="M384.091,490.756h-1.216l-128-14.635c-5.853-0.668-10.056-5.955-9.388-11.808c0-0.004,0.001-0.007,0.001-0.011  c0.734-5.821,5.983-9.989,11.819-9.387l117.184,13.397l1.749-18.752c0.67-5.805,5.799-10.049,11.627-9.621  c5.865,0.551,10.173,5.752,9.622,11.618c0,0.003-0.001,0.006-0.001,0.009l-2.773,29.589  C394.167,486.61,389.573,490.761,384.091,490.756z" fill="#000000" data-original="#000000" style="" class=""/>
<path xmlns="http://www.w3.org/2000/svg" d="M125.339,461.166h-1.237L9.542,448.089c-5.858-0.622-10.103-5.875-9.481-11.733c0.009-0.086,0.019-0.171,0.03-0.256  L42.758,94.766c0.578-5.768,5.723-9.975,11.491-9.397c0.145,0.015,0.29,0.032,0.435,0.053l202.667,23.851  c5.811,0.967,9.739,6.461,8.772,12.272c-0.902,5.425-5.782,9.275-11.268,8.89L62.704,107.929L22.683,428.057l103.851,11.861  c5.891,0.33,10.399,5.373,10.069,11.264c-0.33,5.891-5.373,10.399-11.264,10.069V461.166z" fill="#000000" data-original="#000000" style="" class=""/>
<path xmlns="http://www.w3.org/2000/svg" d="M309.424,170.756c-5.891,0.011-10.675-4.757-10.686-10.648c-0.005-2.84,1.123-5.565,3.134-7.571l53.333-53.333  c4.093-4.237,10.845-4.355,15.083-0.262c4.237,4.093,4.354,10.845,0.262,15.083c-0.086,0.089-0.173,0.176-0.262,0.262  l-53.333,53.333C314.96,169.621,312.251,170.749,309.424,170.756z" fill="#000000" data-original="#000000" style="" class=""/>
<path xmlns="http://www.w3.org/2000/svg" d="M128.091,490.756c-5.521,0.024-10.148-4.168-10.667-9.664l-32-341.333c-0.586-5.809,3.607-11.01,9.408-11.669  l270.933-31.872c5.811-0.967,11.306,2.961,12.272,8.772c0.967,5.811-2.961,11.306-8.772,12.272  c-0.333,0.055-0.668,0.095-1.004,0.118l-260.587,30.741l30.016,320.128l351.808-40.213l-40.021-320.107l-18.88,2.133  c-5.811,0.967-11.306-2.961-12.272-8.772c-0.967-5.811,2.961-11.306,8.772-12.272c0.333-0.055,0.668-0.095,1.004-0.118l29.397-3.477  c5.845-0.735,11.179,3.407,11.914,9.252c0.004,0.031,0.008,0.061,0.011,0.092L512.091,436.1c0.745,5.844-3.388,11.185-9.232,11.93  c-0.045,0.006-0.089,0.011-0.134,0.016l-373.333,42.667L128.091,490.756z" fill="#000000" data-original="#000000" style="" class=""/>
<path xmlns="http://www.w3.org/2000/svg" d="M394.758,128.089c-29.455,0-53.333-23.878-53.333-53.333s23.878-53.333,53.333-53.333s53.333,23.878,53.333,53.333  S424.213,128.089,394.758,128.089z M394.758,42.756c-17.673,0-32,14.327-32,32s14.327,32,32,32s32-14.327,32-32  S412.431,42.756,394.758,42.756z" fill="#000000" data-original="#000000" style="" class=""/>
<g xmlns="http://www.w3.org/2000/svg">
</g>
<g xmlns="http://www.w3.org/2000/svg">
</g>
<g xmlns="http://www.w3.org/2000/svg">
</g>
<g xmlns="http://www.w3.org/2000/svg">
</g>
<g xmlns="http://www.w3.org/2000/svg">
</g>
<g xmlns="http://www.w3.org/2000/svg">
</g>
<g xmlns="http://www.w3.org/2000/svg">
</g>
<g xmlns="http://www.w3.org/2000/svg">
</g>
<g xmlns="http://www.w3.org/2000/svg">
</g>
<g xmlns="http://www.w3.org/2000/svg">
</g>
<g xmlns="http://www.w3.org/2000/svg">
</g>
<g xmlns="http://www.w3.org/2000/svg">
</g>
<g xmlns="http://www.w3.org/2000/svg">
</g>
<g xmlns="http://www.w3.org/2000/svg">
</g>
<g xmlns="http://www.w3.org/2000/svg">
</g>
</g></svg>
